<svg xmlns="http://www.w3.org/2000/svg" width="64" height="64" viewBox="0 0 64 64">
  <g id="Group_44" data-name="Group 44" transform="translate(-1824 -14010)">
    <rect id="Rectangle_23" data-name="Rectangle 23" width="64" height="64" transform="translate(1824 14010)" fill="#03c302"/>
    <g id="Group_24" data-name="Group 24" transform="translate(1355.866 13466.775)">
      <path id="Exclusion_1" data-name="Exclusion 1" d="M17.958,36.218h0a.633.633,0,0,1-.511-.2,1.388,1.388,0,0,1-.1-1.051l.008-.046.071-.424c.443-2.618.577-3.408-1.539-3.862a20.381,20.381,0,0,1-11.371-5.2A13.852,13.852,0,0,1,0,15.423C0,6.919,8.523,0,19,0S38,6.919,38,15.423a13.687,13.687,0,0,1-4.066,9.494A61.327,61.327,0,0,1,19,35.95,2.868,2.868,0,0,1,17.958,36.218Zm-.784-24.892a.369.369,0,0,0-.363.373v8.294a.368.368,0,0,0,.368.363H18.52a.37.37,0,0,0,.362-.373V15.067l3.8,5.123a.387.387,0,0,0,.3.151h1.336a.369.369,0,0,0,.362-.372V11.674a.366.366,0,0,0-.366-.351H22.965a.368.368,0,0,0-.363.373v4.922l-3.8-5.126a.354.354,0,0,0-.3-.166H17.174Zm9.176-.015a.379.379,0,0,0-.373.373v8.285a.378.378,0,0,0,.373.372h5.329a.371.371,0,0,0,.367-.363V18.643a.371.371,0,0,0-.363-.373H28.05v-1.4h3.624a.372.372,0,0,0,.372-.363v-1.35a.371.371,0,0,0-.362-.373H28.05v-1.4h3.624a.372.372,0,0,0,.372-.363V11.69a.392.392,0,0,0-.372-.373l-5.325-.005Zm-12.549,0a.368.368,0,0,0-.368.363v8.295a.367.367,0,0,0,.363.372h1.341a.369.369,0,0,0,.367-.363V11.685a.374.374,0,0,0-.373-.373H13.8Zm-7.2,0a.368.368,0,0,0-.368.363v8.295a.341.341,0,0,0,.1.257.39.39,0,0,0,.257.1h5.33a.369.369,0,0,0,.366-.363V18.631a.371.371,0,0,0-.361-.372l-3.625,0V11.685a.371.371,0,0,0-.362-.373H6.6Z" transform="translate(481.134 559.022)" fill="#fff"/>
    </g>
  </g>
</svg>
