<svg xmlns="http://www.w3.org/2000/svg" width="64" height="64" viewBox="0 0 64 64">
  <g id="Group_2236" data-name="Group 2236" transform="translate(-4374 -803)">
    <g id="Group_2119" data-name="Group 2119" transform="translate(2550 -13207)">
      <rect id="Rectangle_23" data-name="Rectangle 23" width="64" height="64" transform="translate(1824 14010)" fill="#111"/>
    </g>
    <g id="Group_2121" data-name="Group 2121" transform="translate(3677.007 652.739)">
      <g id="Group_2120" data-name="Group 2120" transform="translate(705.998 163.261)">
        <path id="Path_103" data-name="Path 103" d="M733.291,198.963a6.429,6.429,0,0,1-.067.9,1.778,1.778,0,0,1-1.766,1.393q-2.461.012-4.923,0a1.77,1.77,0,0,1-1.813-1.787c-.008-.338-.008-.677,0-1.015a1.756,1.756,0,0,1,1.768-1.773c.964-.015,1.929,0,2.893-.005A14.638,14.638,0,0,0,738.9,193.1a13.97,13.97,0,0,0,4.225-5.8,16.535,16.535,0,0,0,.643-3c.175-.98.281-1.972.452-2.953a8.748,8.748,0,0,0-.473-4.188c-1.961-6.173-6.153-9.962-12.538-10.96a15.279,15.279,0,0,0-17.267,12.04A12.639,12.639,0,0,0,714,182.9q.5,3.176.971,6.357a1.7,1.7,0,0,1-1.4,2.2,5.448,5.448,0,0,1-2.888.294,5.1,5.1,0,0,1-3.287-2.745,10.421,10.421,0,0,1-.589-9.229,5.161,5.161,0,0,1,3.988-3.4c.747-.128.938-.456,1.167-1.055,2.5-6.547,7.21-10.557,14.1-11.794a17.99,17.99,0,0,1,20.121,12.2c.081.246.06.564.492.584a4.918,4.918,0,0,1,4.6,3.672,10.276,10.276,0,0,1-1.288,9.918,4.109,4.109,0,0,1-3.239,1.935,9.727,9.727,0,0,1-2.275-.4.515.515,0,0,0-.631.236,17.925,17.925,0,0,1-10.193,7.158C733.532,198.87,733.423,198.917,733.291,198.963Z" transform="translate(-705.998 -163.261)" fill="#fff"/>
      </g>
      <path id="Path_104" data-name="Path 104" d="M754.641,182.043a12.5,12.5,0,1,0,12.5,12.5A12.5,12.5,0,0,0,754.641,182.043Zm7.389,6.5a13.39,13.39,0,0,1-13.392,13.387.693.693,0,0,1-.675-.533l-.693-3a.7.7,0,0,1,.4-.8l3.233-1.386a.692.692,0,0,1,.808.2l1.43,1.749a10.7,10.7,0,0,0,5.115-5.115l-1.749-1.431a.691.691,0,0,1-.2-.808l1.385-3.232a.7.7,0,0,1,.794-.4l3,.693a.692.692,0,0,1,.537.675Z" transform="translate(-25.648 -13.329)" fill="#fff"/>
    </g>
  </g>
</svg>
