<svg xmlns="http://www.w3.org/2000/svg" width="23.5" height="22.5" viewBox="0 0 23.5 22.5">
  <g id="Icon_feather-shopping-cart" data-name="Icon feather-shopping-cart" transform="translate(-0.75 -0.75)">
    <path id="Path_63" data-name="Path 63" d="M14,31a1,1,0,1,1-1-1A1,1,0,0,1,14,31Z" transform="translate(-3.5 -9.5)" fill="none" stroke="#717171" stroke-linecap="round" stroke-linejoin="round" stroke-width="1.5"/>
    <path id="Path_64" data-name="Path 64" d="M30.5,31a1,1,0,1,1-1-1A1,1,0,0,1,30.5,31Z" transform="translate(-9 -9.5)" fill="none" stroke="#717171" stroke-linecap="round" stroke-linejoin="round" stroke-width="1.5"/>
    <path id="Path_65" data-name="Path 65" d="M1.5,1.5h4L8.18,14.89a2,2,0,0,0,2,1.61H19.9a2,2,0,0,0,2-1.61L23.5,6.5H6.5" transform="translate(0 0)" fill="none" stroke="#717171" stroke-linecap="round" stroke-linejoin="round" stroke-width="1.5"/>
  </g>
</svg>
